<?xml version="1.0" encoding="UTF-8"?>
<!-- Generated by Pixelmator Pro 3.6.14 -->
<svg width="2128" height="618" viewBox="-158 0 2128 618" xmlns="http://www.w3.org/2000/svg">
    <path id="literal" fill="#3f4349" fill-rule="evenodd" stroke="none" d="M 873.326172 597.906494 C 896.903198 611.21875 924.476318 617.874756 956.046631 617.874756 C 983.885986 617.874756 1006.802246 613.481934 1024.796143 604.696289 C 1042.790161 595.910645 1057.386353 584.923096 1068.585571 571.73291 C 1079.784668 558.542969 1088.490967 545.404297 1094.704712 532.31665 L 1051.469971 511.585693 C 1043.876221 528.523193 1032.921509 543.051758 1018.605713 555.172119 C 1004.289795 567.29248 983.681274 573.352539 956.779541 573.352539 C 926.404541 573.352539 901.134155 563.964355 880.967773 545.187988 C 860.801392 526.411621 850.147217 500.248047 849.004883 466.697021 L 1101.69751 466.697021 L 1101.69751 444.381348 C 1101.69751 412.864014 1095.358398 385.556396 1082.680176 362.458252 C 1070.001831 339.360107 1052.47876 321.542969 1030.110107 309.006592 C 1007.741577 296.470459 981.881958 290.202393 952.530396 290.202393 C 922.459106 290.202393 895.815308 296.858398 872.598145 310.17041 C 849.381104 323.482666 831.222412 342.139893 818.12146 366.142822 C 805.020569 390.145752 798.470276 418.17627 798.470276 450.235107 L 798.470276 457.842041 C 798.470276 489.60376 805.051941 517.559814 818.215576 541.711426 C 831.37915 565.862793 849.749268 584.594482 873.326172 597.906494 Z M 1453.297729 606.598145 C 1470.898682 614.115967 1490.597534 617.874756 1512.39502 617.874756 C 1533.769653 617.874756 1551.246704 615.005615 1564.826294 609.267334 C 1578.405884 603.529297 1589.127808 596.313477 1596.99231 587.620361 C 1604.856812 578.927246 1610.984497 570.546143 1615.37561 562.476807 L 1623.369019 562.476807 L 1623.369019 565.814941 C 1623.369019 579.093994 1627.540405 589.611328 1635.883667 597.366699 C 1644.226929 605.122314 1655.315308 609 1669.149048 609 L 1713.394165 609 L 1713.394165 566.478516 L 1684.888062 566.478516 C 1673.05481 566.478516 1667.13855 560.139404 1667.13855 547.461182 L 1667.13855 407.228271 C 1667.13855 370.031982 1656.069946 341.229004 1633.932495 320.818359 C 1611.795044 300.407471 1580.920288 290.202393 1541.307251 290.202393 C 1515.462036 290.202393 1493.361206 294.4729 1475.00415 303.01416 C 1456.647095 311.555664 1441.943481 322.932861 1430.892944 337.146484 C 1419.842285 351.359863 1411.781494 367.245605 1406.710205 384.803711 L 1454.144531 399.621338 C 1458.898926 379.553955 1468.311768 363.476807 1482.383301 351.389648 C 1496.454834 339.302246 1515.973877 333.258789 1540.940796 333.258789 C 1566.323608 333.258789 1585.464722 339.587891 1598.364136 352.246338 C 1611.26355 364.904785 1617.713257 382.231445 1617.713257 404.227051 L 1617.713257 426.928955 L 1512.59314 426.928955 C 1490.729614 426.928955 1470.981201 430.402344 1453.347168 437.348877 C 1435.713135 444.29541 1421.795288 454.682373 1411.593262 468.509521 C 1401.391235 482.33667 1396.290283 499.729492 1396.290283 520.688232 C 1396.290283 541.33667 1401.391235 558.9375 1411.593262 573.491211 C 1421.795288 588.044678 1435.696655 599.080322 1453.297729 606.598145 Z M 606.527527 594.390381 C 616.115479 604.130127 629.764221 609 647.474243 609 L 729.922241 609 L 729.922241 565.577148 L 660.964661 565.577148 C 648.530701 565.577148 642.313782 559.238037 642.313782 546.559814 L 642.313782 342.5 L 743.828674 342.5 L 743.828674 299.077148 L 642.313782 299.077148 L 642.313782 188.855957 L 592.145691 188.855957 L 592.145691 299.077148 L 499.139099 299.077148 L 499.139099 342.5 L 592.145691 342.5 L 592.145691 554.206299 C 592.145691 571.256104 596.939575 584.650635 606.527527 594.390381 Z M 1188.902466 299.077148 L 1188.902466 609 L 1239.070557 609 L 1239.070557 420.332275 C 1239.070557 394.038086 1245.921387 374.67749 1259.623169 362.250244 C 1273.324951 349.822998 1291.368164 343.609375 1313.753174 343.609375 L 1353.957031 343.609375 L 1353.957031 297.809326 L 1317.269409 297.809326 C 1298.397217 297.809326 1283.272705 300.917725 1271.895264 307.134766 C 1260.517822 313.351563 1252.055908 323.251465 1246.509155 336.834473 L 1237.802734 336.834473 L 1237.802734 299.077148 L 1188.902466 299.077148 Z M 375.854004 608.401367 L 375.854004 298.419067 L 425.932983 298.419067 L 425.932983 608.401367 L 375.854004 608.401367 Z M 180.446533 607.928711 C 163.707733 607.928711 149.710815 602.093018 138.455414 590.420898 C 127.200043 578.749268 121.572388 564.451416 121.572388 547.527344 L 121.572388 260.402588 C 121.572388 225.970947 102.813721 208.755371 65.295685 208.755371 L 0.360992 208.755371 L 0.360992 157.983154 L 65.295685 157.983154 C 102.813721 157.983154 121.572388 140.767334 121.572388 106.335693 L 121.572388 0 L 171.788605 0 L 171.788605 108.086426 C 171.788605 129.679199 166.449554 146.749023 155.771332 159.296143 C 145.09317 171.843262 129.364685 178.116943 108.58548 178.116943 L 105.988068 178.116943 L 105.988068 188.621338 L 108.58548 188.621338 C 129.364685 188.621338 145.09317 194.89502 155.771332 207.442139 C 166.449554 219.989258 171.788605 237.059082 171.788605 258.651611 L 171.788605 538.891602 C 171.788605 556.399414 179.580658 565.153076 195.16507 565.153076 L 288.362305 565.153076 L 288.362305 607.928711 L 180.446533 607.928711 Z M 1819.09314 590.421021 C 1830.348389 602.092834 1844.345215 607.928589 1861.084229 607.928589 L 1969 607.928589 L 1969 565.152954 L 1875.802734 565.152954 C 1860.218262 565.152954 1852.42627 556.399292 1852.42627 538.891602 L 1852.42627 258.651733 C 1852.42627 228.465515 1845.715088 207.64032 1835.036865 195.093262 C 1824.358765 182.546021 1802.944092 165.295593 1776.874146 165.295593 L 1708.440674 165.588867 L 1708.440674 208.75531 L 1745.93335 208.75531 C 1783.451294 208.75531 1802.209961 225.970886 1802.209961 260.40271 L 1802.209961 548.899475 C 1802.209961 565.823547 1807.837769 578.749207 1819.09314 590.421021 Z M 1590.172729 548.466553 C 1571.812378 566.034424 1547.834595 574.818359 1518.238892 574.818359 C 1496.831055 574.818359 1479.514282 569.951904 1466.287842 560.218506 C 1453.061523 550.485352 1446.448486 536.912598 1446.448486 519.499756 C 1446.448486 502.086914 1452.85022 489.085205 1465.653931 480.494385 C 1478.457764 471.903564 1494.807129 467.608154 1514.702881 467.608154 L 1617.713257 467.608154 L 1617.713257 474.848633 C 1617.713257 506.359375 1608.533081 530.898438 1590.172729 548.466553 Z M 1050.717163 426.007813 L 849.638794 426.007813 C 853.798828 397.032715 864.918579 374.576904 882.998291 358.639893 C 901.078003 342.702881 924.192383 334.734619 952.342163 334.734619 C 980.551392 334.734619 1003.57666 342.702881 1021.418579 358.639893 C 1039.26062 374.576904 1049.026733 397.032715 1050.717163 426.007813 Z M 433.728638 199.515259 C 433.728638 181.328247 418.985168 166.584778 400.798218 166.584778 C 382.611206 166.584778 367.867798 181.328247 367.867798 199.515259 C 367.867798 217.702209 382.611206 232.445679 400.798218 232.445679 C 418.985168 232.445679 433.728638 217.702209 433.728638 199.515259 Z"/>
</svg>
