<?xml version="1.0" encoding="UTF-8"?>
<svg width="800px" height="800px" viewBox="0 0 800 800" version="1.1" xmlns="http://www.w3.org/2000/svg" xmlns:xlink="http://www.w3.org/1999/xlink">
    <title>logo-800x800</title>
    <defs>
        <linearGradient x1="28.6321806%" y1="20.2418346%" x2="63.0491805%" y2="103.711697%" id="linearGradient-1">
            <stop stop-color="#39578C" offset="0%"></stop>
            <stop stop-color="#24D1E2" offset="100%"></stop>
        </linearGradient>
    </defs>
    <g id="logo" stroke="none" stroke-width="1" fill="none" fill-rule="evenodd">
        <rect fill="#3886BF" x="0" y="0" width="800" height="800"></rect>
        <rect id="Rectangle" stroke="#979797" fill="url(#linearGradient-1)" x="0" y="-62.7261761" width="1113.63088" height="937.032569"></rect>
        <path d="M130.082347,529.719446 L130.082347,501.041608 L117.282057,501.041608 C98.6005531,501.041608 94.7950615,495.706196 94.7950615,477.365718 L94.7950615,425.345453 C94.7950615,394.666835 83.7245406,384.662938 65.3889904,379.994453 L65.3889904,378.994063 C83.7245406,374.325578 94.7950615,364.321681 94.7950615,333.643063 L94.7950615,281.956261 C94.7950615,263.615783 98.6005531,258.613835 117.282057,258.613835 L130.082347,258.613835 L130.082347,229.602533 L114.860381,229.602533 C71.2702047,229.602533 59.1618224,241.60721 59.1618224,281.289335 L59.1618224,331.30882 C59.1618224,351.983541 56.0482384,365.655534 32.8693354,365.655534 L32.8693354,393.332983 C56.0482384,393.332983 59.1618224,407.004975 59.1618224,427.679696 L59.1618224,478.032645 C59.1618224,517.71477 71.2702047,529.719446 114.860381,529.719446 L130.082347,529.719446 Z" id="{" fill="#FFFFFF" fill-rule="nonzero"></path>
        <path d="M182.918588,379.298476 C193.500181,379.298476 202.017073,370.781584 202.017073,360.458078 C202.017073,349.876485 193.500181,341.617681 182.918588,341.617681 C172.595083,341.617681 164.078191,349.876485 164.078191,360.458078 C164.078191,370.781584 172.595083,379.298476 182.918588,379.298476 Z M197.113408,530.021657 L197.113408,400.977838 L168.723768,400.977838 L168.723768,530.021657 L197.113408,530.021657 Z M278.152927,530.021657 L278.152927,426.270426 L317.640335,426.270426 L317.640335,400.977838 L278.152927,400.977838 L278.152927,353.7478 L249.763286,370.265409 L249.763286,400.977838 L220.341296,400.977838 L220.341296,426.270426 L249.763286,426.270426 L249.763286,530.021657 L278.152927,530.021657 Z M397.131328,532.602533 C415.45555,532.602533 428.61802,529.763569 441.522402,523.569466 L441.522402,495.954089 C427.843757,503.954805 415.45555,507.051857 400.22838,507.051857 C379.323281,507.051857 358.67627,498.276877 357.385832,472.210026 L452.878258,472.210026 C454.168696,424.979988 428.359932,398.396961 391.969575,398.396961 C355.063043,398.396961 327.705753,423.431462 327.705753,465.499747 C327.705753,510.406996 359.192445,532.602533 397.131328,532.602533 Z M422.940092,451.821102 L357.902007,451.821102 C361.257146,430.399828 377.000492,421.624849 391.711488,421.624849 C408.487184,421.624849 420.617303,432.206442 422.940092,451.821102 Z M509.657538,530.021657 L509.657538,447.175525 C515.335467,433.754968 525.400884,427.560864 542.692756,427.560864 L554.822875,427.560864 L554.822875,399.687399 L544.757457,399.687399 C527.723673,399.687399 514.561204,407.946204 509.657538,418.011622 L509.657538,400.977838 L481.267898,400.977838 L481.267898,530.021657 L509.657538,530.021657 Z M629.152115,532.602533 C644.379286,532.602533 657.799843,527.44078 666.83291,517.891538 L666.83291,530.021657 L695.222551,530.021657 L695.222551,400.977838 L666.83291,400.977838 L666.83291,412.849869 C657.799843,403.558714 644.379286,398.396961 629.152115,398.396961 C590.697057,398.396961 564.630205,429.10939 564.630205,465.499747 C564.630205,501.890104 590.697057,532.602533 629.152115,532.602533 Z M632.249167,506.793769 C609.537455,506.793769 594.052196,488.211459 594.052196,465.499747 C594.052196,442.788035 609.537455,424.205725 632.249167,424.205725 C649.024863,424.205725 660.122632,431.948354 666.83291,442.013772 L666.83291,488.727635 C660.122632,499.05114 649.024863,506.793769 632.249167,506.793769 Z M761.809161,530.021657 L761.809161,346.779433 L733.419521,346.779433 L733.419521,530.021657 L761.809161,530.021657 Z" id="iteral" fill="#FFFFFF" fill-rule="nonzero"></path>
    </g>
</svg>