<?xml version="1.0" encoding="UTF-8"?>
<svg width="800px" height="800px" viewBox="0 0 800 800" version="1.1" xmlns="http://www.w3.org/2000/svg" xmlns:xlink="http://www.w3.org/1999/xlink">
    <title>logo-800x800</title>
    <defs>
        <linearGradient x1="28.6321806%" y1="20.2418346%" x2="63.0491805%" y2="103.711697%" id="linearGradient-1">
            <stop stop-color="#39578C" offset="0%"></stop>
            <stop stop-color="#24D1E2" offset="100%"></stop>
        </linearGradient>
    </defs>
    <g id="logo" stroke="none" stroke-width="1" fill="none" fill-rule="evenodd">
        <rect fill="#3886BF" x="0" y="0" width="800" height="800"></rect>
        <rect id="Rectangle" stroke="#979797" fill="url(#linearGradient-1)" x="0" y="-62.7261761" width="1113.63088" height="937.032569"></rect>
        <path d="M159.806996,375.102533 L159.806996,325.3076 L137.581138,325.3076 C105.143398,325.3076 98.5357106,316.043426 98.5357106,284.197829 L98.5357106,193.872135 C98.5357106,140.603136 79.3133465,123.232811 47.4763058,115.126659 L47.4763058,113.389626 C79.3133465,105.283474 98.5357106,87.9131484 98.5357106,34.6441496 L98.5357106,-55.1025332 C98.5357106,-86.9481303 105.143398,-95.6332931 137.581138,-95.6332931 L159.806996,-95.6332931 L159.806996,-146.007238 L133.376246,-146.007238 C57.6881868,-146.007238 36.663726,-125.162847 36.663726,-56.2605549 L36.663726,30.5910736 C36.663726,66.4897467 31.2574361,90.2291918 -8.98938889,90.2291918 L-8.98938889,138.287093 C31.2574361,138.287093 36.663726,162.026538 36.663726,197.925211 L36.663726,285.35585 C36.663726,354.258142 57.6881868,375.102533 133.376246,375.102533 L159.806996,375.102533 Z" id="{" fill="#FFFFFF" fill-rule="nonzero"></path>
        <path d="M210.422002,231.005259 C220.558745,231.005259 228.717587,222.846417 228.717587,212.956912 C228.717587,202.820169 220.558745,194.908565 210.422002,194.908565 C200.532497,194.908565 192.373655,202.820169 192.373655,212.956912 C192.373655,222.846417 200.532497,231.005259 210.422002,231.005259 Z M224.020072,375.392039 L224.020072,251.773221 L196.823932,251.773221 L196.823932,375.392039 L224.020072,375.392039 Z M301.65269,375.392039 L301.65269,276.002509 L339.480048,276.002509 L339.480048,251.773221 L301.65269,251.773221 L301.65269,206.528733 L274.45655,222.351942 L274.45655,251.773221 L246.27146,251.773221 L246.27146,276.002509 L274.45655,276.002509 L274.45655,375.392039 L301.65269,375.392039 Z M415.62924,377.864415 C433.183112,377.864415 445.792232,375.144801 458.154113,369.211098 L458.154113,342.756671 C445.050519,350.421037 433.183112,353.387889 418.596092,353.387889 C398.569843,353.387889 378.790832,344.981809 377.554644,320.010808 L469.032569,320.010808 C470.268758,274.766321 445.544994,249.300844 410.684487,249.300844 C375.329505,249.300844 349.122316,273.282895 349.122316,313.58263 C349.122316,356.601978 379.285308,377.864415 415.62924,377.864415 Z M440.353004,300.479035 L378.049119,300.479035 C381.263209,279.958311 396.344704,271.552232 410.43725,271.552232 C426.507696,271.552232 438.127865,281.688975 440.353004,300.479035 Z M523.424849,375.392039 L523.424849,296.028758 C528.864077,283.1724 538.506345,277.238697 555.071267,277.238697 L566.691435,277.238697 L566.691435,250.537033 L557.049168,250.537033 C540.731484,250.537033 528.122364,258.448637 523.424849,268.090905 L523.424849,251.773221 L496.228709,251.773221 L496.228709,375.392039 L523.424849,375.392039 Z M637.895875,377.864415 C652.482895,377.864415 665.339252,372.919662 673.992569,363.77187 L673.992569,375.392039 L701.188709,375.392039 L701.188709,251.773221 L673.992569,251.773221 L673.992569,263.146152 C665.339252,254.245597 652.482895,249.300844 637.895875,249.300844 C601.057467,249.300844 576.086466,278.722123 576.086466,313.58263 C576.086466,348.443136 601.057467,377.864415 637.895875,377.864415 Z M640.862726,353.140651 C619.105814,353.140651 604.271556,335.339542 604.271556,313.58263 C604.271556,291.825718 619.105814,274.024608 640.862726,274.024608 C656.933172,274.024608 667.564391,281.441737 673.992569,291.084005 L673.992569,335.834017 C667.564391,345.723522 656.933172,353.140651 640.862726,353.140651 Z M764.976019,375.392039 L764.976019,199.853317 L737.779879,199.853317 L737.779879,375.392039 L764.976019,375.392039 Z" id="iteral" fill="#FFFFFF" fill-rule="nonzero"></path>
    </g>
</svg>