<?xml version="1.0" encoding="UTF-8"?>
<!-- Generated by Pixelmator Pro 3.6.4 -->
<svg width="1919" height="453" viewBox="0 0 1919 453" xmlns="http://www.w3.org/2000/svg">
    <path id="literal" fill="#3f4349" fill-rule="evenodd" stroke="none" d="M 915.046875 452.875 C 883.476624 452.875 855.903198 446.218506 832.326172 432.90625 C 808.749268 419.594238 790.378418 400.862274 777.214844 376.710938 C 764.051208 352.559357 757.470703 324.603485 757.470703 292.841797 L 757.470703 285.234375 C 757.470703 253.175568 764.020203 225.145477 777.121094 201.142578 C 790.222046 177.139679 808.380615 158.482178 831.597656 145.169922 C 854.814819 131.85791 881.459961 125.203125 911.53125 125.203125 C 940.882813 125.203125 966.740845 131.469727 989.109375 144.005859 C 1011.478027 156.542236 1029.001343 174.36087 1041.679688 197.458984 C 1054.35791 220.557098 1060.697266 247.863556 1060.697266 279.380859 L 1060.697266 301.697266 L 808.003906 301.697266 C 809.14624 335.24826 819.802368 361.411133 839.96875 380.1875 C 860.135132 398.963837 885.404297 408.351563 915.779297 408.351563 C 942.68103 408.351563 963.289551 402.292236 977.605469 390.171875 C 991.921265 378.051514 1002.876953 363.523438 1010.470703 346.585938 L 1053.705078 367.316406 C 1047.491333 380.404053 1038.785034 393.54248 1027.585938 406.732422 C 1016.386719 419.922607 1001.790894 430.909668 983.796875 439.695313 C 965.802979 448.480957 942.88623 452.875 915.046875 452.875 Z M 1471.394531 452.875 C 1449.597046 452.875 1429.897827 449.115479 1412.296875 441.597656 C 1394.695801 434.079834 1380.795776 423.045654 1370.59375 408.492188 C 1360.391724 393.938477 1355.291016 376.335907 1355.291016 355.6875 C 1355.291016 334.72879 1360.391724 317.336914 1370.59375 303.509766 C 1380.795776 289.682617 1394.713623 279.296143 1412.347656 272.349609 C 1429.981689 265.403076 1449.730225 261.929688 1471.59375 261.929688 L 1576.712891 261.929688 L 1576.712891 239.226563 C 1576.712891 217.230972 1570.262695 199.904526 1557.363281 187.246094 C 1544.463867 174.587646 1525.324219 168.257813 1499.941406 168.257813 C 1474.974487 168.257813 1455.454346 174.303223 1441.382813 186.390625 C 1427.311279 198.477768 1417.898926 214.553726 1413.144531 234.621094 L 1365.710938 219.804688 C 1370.782227 202.246597 1378.841919 186.359863 1389.892578 172.146484 C 1400.943115 157.932861 1415.646851 146.555176 1434.003906 138.013672 C 1452.360962 129.472412 1474.461426 125.203125 1500.306641 125.203125 C 1539.919678 125.203125 1570.794189 135.407501 1592.931641 155.818359 C 1615.069092 176.228973 1626.138672 205.032257 1626.138672 242.228516 L 1626.138672 382.460938 C 1626.138672 395.13916 1632.05542 401.478516 1643.888672 401.478516 L 1672.394531 401.478516 L 1672.394531 444 L 1628.148438 444 C 1614.314697 444 1603.226074 440.122803 1594.882813 432.367188 C 1586.539551 424.611816 1582.369141 414.093506 1582.369141 400.814453 L 1582.369141 397.476563 L 1574.375 397.476563 C 1569.983887 405.545898 1563.856689 413.927979 1555.992188 422.621094 C 1548.127686 431.314209 1537.405762 438.529541 1523.826172 444.267578 C 1510.246582 450.005859 1492.769165 452.875 1471.394531 452.875 Z M 606.474609 444 C 588.764587 444 575.115295 439.130371 565.527344 429.390625 C 555.939392 419.650879 551.146484 406.256836 551.146484 389.207031 L 551.146484 177.5 L 458.138672 177.5 L 458.138672 134.078125 L 551.146484 134.078125 L 551.146484 23.855469 L 601.314453 23.855469 L 601.314453 134.078125 L 702.828125 134.078125 L 702.828125 177.5 L 601.314453 177.5 L 601.314453 381.560547 C 601.314453 394.23877 607.530884 400.578125 619.964844 400.578125 L 688.921875 400.578125 L 688.921875 444 L 606.474609 444 Z M 1147.902344 444 L 1147.902344 134.078125 L 1196.802734 134.078125 L 1196.802734 171.833984 L 1205.509766 171.833984 C 1211.056519 158.250977 1219.51709 148.351563 1230.894531 142.134766 C 1242.271973 135.917725 1257.397339 132.808594 1276.269531 132.808594 L 1312.957031 132.808594 L 1312.957031 178.609375 L 1272.753906 178.609375 C 1250.368896 178.609375 1232.324829 184.822754 1218.623047 197.25 C 1204.921265 209.677231 1198.070313 229.037872 1198.070313 255.332031 L 1198.070313 444 L 1147.902344 444 Z M 334.853516 443.402344 L 334.853516 133.419922 L 384.933594 133.419922 L 384.933594 443.402344 L 334.853516 443.402344 Z M 152.191406 442.927734 C 135.452545 442.927734 121.454575 437.093658 110.199219 425.421875 C 98.943893 413.750092 93.316406 400.824432 93.316406 383.900391 L 93.316406 95.402344 C 93.316406 60.970581 74.55687 43.755859 37.039063 43.755859 L -0.453125 43.755859 L -0.453125 0.589844 L 67.980469 0.294922 C 94.050339 0.294922 115.464432 17.546509 126.142578 30.09375 C 136.820709 42.640808 143.533203 63.466187 143.533203 93.652344 L 143.533203 373.890625 C 143.533203 391.398285 151.325806 400.152344 166.910156 400.152344 L 260.107422 400.152344 L 260.107422 442.927734 L 152.191406 442.927734 Z M 1811.083984 442.927734 C 1794.344971 442.927734 1780.348999 437.093689 1769.09375 425.421875 C 1757.838379 413.750061 1752.210938 400.824463 1752.210938 383.900391 L 1752.210938 95.402344 C 1752.210938 60.970551 1733.451538 43.755859 1695.933594 43.755859 L 1658.441406 43.755859 L 1658.441406 0.589844 L 1726.875 0.294922 C 1752.944946 0.294922 1774.359009 17.546509 1785.037109 30.09375 C 1795.715332 42.640808 1802.425781 63.466156 1802.425781 93.652344 L 1802.425781 373.890625 C 1802.425781 391.398285 1810.218262 400.152344 1825.802734 400.152344 L 1919 400.152344 L 1919 442.927734 L 1811.083984 442.927734 Z M 1477.238281 409.818359 C 1506.833984 409.818359 1530.811523 401.034637 1549.171875 383.466797 C 1567.532227 365.898682 1576.712891 341.358368 1576.712891 309.847656 L 1576.712891 302.607422 L 1473.703125 302.607422 C 1453.807373 302.607422 1437.45813 306.90332 1424.654297 315.494141 C 1411.850586 324.084961 1405.449219 337.087158 1405.449219 354.5 C 1405.449219 371.912842 1412.060791 385.485596 1425.287109 395.21875 C 1438.51355 404.952148 1455.830444 409.818359 1477.238281 409.818359 Z M 808.638672 261.007813 L 1009.716797 261.007813 C 1008.026367 232.032745 998.26001 209.577621 980.417969 193.640625 C 962.57605 177.703644 939.551025 169.734375 911.341797 169.734375 C 883.192017 169.734375 860.077759 177.703644 841.998047 193.640625 C 823.918335 209.577621 812.798706 232.032745 808.638672 261.007813 Z M 359.798828 67.445313 C 341.611877 67.445313 326.867188 52.702515 326.867188 34.515625 C 326.867188 16.328674 341.611877 1.583984 359.798828 1.583984 C 377.985718 1.583984 392.728516 16.328674 392.728516 34.515625 C 392.728516 52.702515 377.985718 67.445313 359.798828 67.445313 Z"/>
</svg>
