<?xml version="1.0" encoding="UTF-8"?>
<svg width="830px" height="830px" viewBox="0 0 830 830" version="1.1" xmlns="http://www.w3.org/2000/svg" xmlns:xlink="http://www.w3.org/1999/xlink">
    <title>logo-830x830</title>
    <defs>
        <linearGradient x1="26.971459%" y1="9.76054072%" x2="95.8097163%" y2="93.5128576%" id="linearGradient-1">
            <stop stop-color="#39578C" offset="0%"></stop>
            <stop stop-color="#24D1E2" offset="100%"></stop>
        </linearGradient>
    </defs>
    <g id="logo" stroke="none" stroke-width="1" fill="none" fill-rule="evenodd">
        <rect fill="#3886BF" x="0" y="0" width="830" height="830"></rect>
        <rect id="Rectangle" stroke="#979797" fill="url(#linearGradient-1)" x="0" y="-65" width="1154" height="971"></rect>
        <path d="M165.6,388.7 L165.6,337.1 L142.568454,337.1 C108.954846,337.1 102.10763,327.5 102.10763,294.5 L102.10763,200.9 C102.10763,145.7 82.1884553,127.7 49.1973219,119.3 L49.1973219,117.5 C82.1884553,109.1 102.10763,91.1 102.10763,35.9 L102.10763,-57.1 C102.10763,-90.1 108.954846,-99.1 142.568454,-99.1 L165.6,-99.1 L165.6,-151.3 L138.211135,-151.3 C59.7793836,-151.3 37.9927861,-129.7 37.9927861,-58.3 L37.9927861,31.7 C37.9927861,68.9 32.3905181,93.5 -9.31525424,93.5 L-9.31525424,143.3 C32.3905181,143.3 37.9927861,167.9 37.9927861,205.1 L37.9927861,295.7 C37.9927861,367.1 59.7793836,388.7 138.211135,388.7 L165.6,388.7 Z" id="{" fill="#FFFFFF" fill-rule="nonzero"></path>
        <text id="iteral" font-family="EuclidTriangle-Medium, Euclid Triangle" font-size="256.2" font-weight="400" fill="#FFFFFF">
            <tspan x="185" y="389">iteral</tspan>
        </text>
    </g>
</svg>