<?xml version="1.0" encoding="UTF-8"?>
<!-- Generated by Pixelmator Pro 3.6.4 -->
<svg width="1949" height="677" viewBox="0 0 1949 677" xmlns="http://www.w3.org/2000/svg">
    <path id="literal" fill="#3f4349" fill-rule="evenodd" stroke="none" d="M 945.046875 676.875 C 913.476624 676.875 885.903198 670.218506 862.326172 656.90625 C 838.749268 643.594238 820.378418 624.862305 807.214844 600.710938 C 794.051208 576.559326 787.470703 548.603516 787.470703 516.841797 L 787.470703 509.234375 C 787.470703 477.175568 794.020203 449.145477 807.121094 425.142578 C 820.222046 401.139679 838.380615 382.482178 861.597656 369.169922 C 884.814819 355.85791 911.459961 349.203125 941.53125 349.203125 C 970.882813 349.203125 996.740845 355.469727 1019.109375 368.005859 C 1041.478027 380.542236 1059.001343 398.36087 1071.679688 421.458984 C 1084.35791 444.557098 1090.697266 471.863556 1090.697266 503.380859 L 1090.697266 525.697266 L 838.003906 525.697266 C 839.14624 559.248291 849.802368 585.411133 869.96875 604.1875 C 890.135132 622.963867 915.404297 632.351563 945.779297 632.351563 C 972.68103 632.351563 993.289551 626.292236 1007.605469 614.171875 C 1021.921265 602.051514 1032.876953 587.523438 1040.470703 570.585938 L 1083.705078 591.316406 C 1077.491333 604.404053 1068.785034 617.54248 1057.585938 630.732422 C 1046.386719 643.922607 1031.790894 654.909668 1013.796875 663.695313 C 995.802979 672.480957 972.88623 676.875 945.046875 676.875 Z M 1501.394531 676.875 C 1479.597046 676.875 1459.897827 673.115479 1442.296875 665.597656 C 1424.695801 658.079834 1410.795776 647.045654 1400.59375 632.492188 C 1390.391724 617.938477 1385.291016 600.335938 1385.291016 579.6875 C 1385.291016 558.72876 1390.391724 541.336914 1400.59375 527.509766 C 1410.795776 513.682617 1424.713623 503.296143 1442.347656 496.349609 C 1459.981689 489.403076 1479.730225 485.929688 1501.59375 485.929688 L 1606.712891 485.929688 L 1606.712891 463.226563 C 1606.712891 441.230957 1600.262695 423.904541 1587.363281 411.246094 C 1574.463867 398.587646 1555.324219 392.257813 1529.941406 392.257813 C 1504.974365 392.257813 1485.454346 398.303223 1471.382813 410.390625 C 1457.311279 422.477783 1447.898926 438.553711 1443.144531 458.621094 L 1395.710938 443.804688 C 1400.782227 426.246582 1408.841919 410.359863 1419.892578 396.146484 C 1430.943115 381.932861 1445.646851 370.555176 1464.003906 362.013672 C 1482.360962 353.472412 1504.461304 349.203125 1530.306641 349.203125 C 1569.919678 349.203125 1600.796143 359.407501 1622.933594 379.818359 C 1645.071045 400.228973 1656.138672 429.032257 1656.138672 466.228516 L 1656.138672 606.460938 C 1656.138672 619.13916 1662.05542 625.478516 1673.888672 625.478516 L 1702.394531 625.478516 L 1702.394531 668 L 1658.148438 668 C 1644.314697 668 1633.226074 664.122803 1624.882813 656.367188 C 1616.539551 648.611816 1612.369141 638.093506 1612.369141 624.814453 L 1612.369141 621.476563 L 1604.375 621.476563 C 1599.983887 629.545898 1593.856689 637.927979 1585.992188 646.621094 C 1578.127686 655.314209 1567.405762 662.529541 1553.826172 668.267578 C 1540.246582 674.005859 1522.769287 676.875 1501.394531 676.875 Z M 636.474609 668 C 618.764587 668 605.115295 663.130371 595.527344 653.390625 C 585.939392 643.650879 581.146484 630.256836 581.146484 613.207031 L 581.146484 401.5 L 488.138672 401.5 L 488.138672 358.078125 L 581.146484 358.078125 L 581.146484 247.855469 L 631.314453 247.855469 L 631.314453 358.078125 L 732.828125 358.078125 L 732.828125 401.5 L 631.314453 401.5 L 631.314453 605.560547 C 631.314453 618.23877 637.530884 624.578125 649.964844 624.578125 L 718.921875 624.578125 L 718.921875 668 L 636.474609 668 Z M 1177.902344 668 L 1177.902344 358.078125 L 1226.802734 358.078125 L 1226.802734 395.833984 L 1235.509766 395.833984 C 1241.056519 382.250977 1249.51709 372.351563 1260.894531 366.134766 C 1272.271973 359.917725 1287.397339 356.808594 1306.269531 356.808594 L 1342.957031 356.808594 L 1342.957031 402.609375 L 1302.753906 402.609375 C 1280.368896 402.609375 1262.324829 408.822754 1248.623047 421.25 C 1234.921265 433.677246 1228.070313 453.037872 1228.070313 479.332031 L 1228.070313 668 L 1177.902344 668 Z M 364.853516 667.402344 L 364.853516 357.419922 L 414.933594 357.419922 L 414.933594 667.402344 L 364.853516 667.402344 Z M 180.447266 666.929688 C 163.708496 666.929688 149.710449 661.09375 138.455078 649.421875 C 127.199722 637.750122 121.572266 623.451294 121.572266 606.527344 L 121.572266 319.402344 C 121.572266 284.970581 102.812881 267.755859 65.294922 267.755859 L 0.361328 267.755859 L 0.361328 216.982422 L 65.294922 216.982422 C 102.812881 216.982422 121.572266 199.7677 121.572266 165.335938 L 121.572266 -121.789063 C 121.572266 -138.713013 127.199722 -153.011963 138.455078 -164.683594 C 149.710449 -176.355591 163.708496 -182.189453 180.447266 -182.189453 L 288.363281 -182.189453 L 288.363281 -139.414063 L 195.166016 -139.414063 C 179.581635 -139.414063 171.789063 -130.660034 171.789063 -113.152344 L 171.789063 167.085938 C 171.789063 188.678711 166.449677 205.749634 155.771484 218.296875 C 145.093353 230.844055 129.365112 237.117188 108.585938 237.117188 L 105.988281 237.117188 L 105.988281 247.621094 L 108.585938 247.621094 C 129.365112 247.621094 145.093353 253.894226 155.771484 266.441406 C 166.449677 278.988464 171.789063 296.059753 171.789063 317.652344 L 171.789063 597.892578 C 171.789063 615.400208 179.581635 624.152344 195.166016 624.152344 L 288.363281 624.152344 L 288.363281 666.929688 L 180.447266 666.929688 Z M 1841.083984 666.927734 C 1824.344971 666.927734 1810.348999 661.093689 1799.09375 649.421875 C 1787.838379 637.750061 1782.210938 624.824463 1782.210938 607.900391 L 1782.210938 319.402344 C 1782.210938 284.970551 1763.451538 267.755859 1725.933594 267.755859 L 1688.441406 267.755859 L 1688.441406 224.589844 L 1756.875 224.294922 C 1782.944946 224.294922 1804.359009 241.546509 1815.037109 254.09375 C 1825.715332 266.640808 1832.425781 287.466156 1832.425781 317.652344 L 1832.425781 597.890625 C 1832.425781 615.398315 1840.218262 624.152344 1855.802734 624.152344 L 1949 624.152344 L 1949 666.927734 L 1841.083984 666.927734 Z M 1507.238281 633.818359 C 1536.834106 633.818359 1560.811523 625.034668 1579.171875 607.466797 C 1597.532227 589.898682 1606.712891 565.358398 1606.712891 533.847656 L 1606.712891 526.607422 L 1503.703125 526.607422 C 1483.807373 526.607422 1467.45813 530.90332 1454.654297 539.494141 C 1441.850586 548.084961 1435.449219 561.087158 1435.449219 578.5 C 1435.449219 595.912842 1442.060791 609.485596 1455.287109 619.21875 C 1468.51355 628.952148 1485.830444 633.818359 1507.238281 633.818359 Z M 838.638672 485.007813 L 1039.716797 485.007813 C 1038.026367 456.032745 1028.26001 433.577637 1010.417969 417.640625 C 992.57605 401.703644 969.551025 393.734375 941.341797 393.734375 C 913.192017 393.734375 890.077759 401.703644 871.998047 417.640625 C 853.918335 433.577637 842.798706 456.032745 838.638672 485.007813 Z M 389.798828 291.445313 C 371.611877 291.445313 356.867188 276.702515 356.867188 258.515625 C 356.867188 240.328674 371.611877 225.583984 389.798828 225.583984 C 407.985718 225.583984 422.728516 240.328674 422.728516 258.515625 C 422.728516 276.702515 407.985718 291.445313 389.798828 291.445313 Z"/>
</svg>
