<?xml version="1.0" encoding="UTF-8"?>
<svg width="800px" height="800px" viewBox="0 0 800 800" version="1.1" xmlns="http://www.w3.org/2000/svg" xmlns:xlink="http://www.w3.org/1999/xlink">
    <title>logo-800x800</title>
    <defs>
        <linearGradient x1="28.6321806%" y1="20.2418346%" x2="63.0491805%" y2="103.711697%" id="linearGradient-1">
            <stop stop-color="#39578C" offset="0%"></stop>
            <stop stop-color="#24D1E2" offset="100%"></stop>
        </linearGradient>
    </defs>
    <g id="logo" stroke="none" stroke-width="1" fill="none" fill-rule="evenodd">
        <rect fill="#3886BF" x="0" y="0" width="800" height="800"></rect>
        <rect id="Rectangle" stroke="#979797" fill="url(#linearGradient-1)" x="0" y="-62.7261761" width="1113.63088" height="937.032569"></rect>
        <path d="M185.403093,378.808876 C195.697209,378.808876 203.982717,370.523368 203.982717,360.480328 C203.982717,350.186212 195.697209,342.15178 185.403093,342.15178 C175.360053,342.15178 167.074545,350.186212 167.074545,360.480328 C167.074545,370.523368 175.360053,378.808876 185.403093,378.808876 Z M199.212273,525.43726 L199.212273,399.89926 L171.593913,399.89926 L171.593913,525.43726 L199.212273,525.43726 Z M278.050137,525.43726 L278.050137,424.504708 L316.464765,424.504708 L316.464765,399.89926 L278.050137,399.89926 L278.050137,353.952352 L250.431777,370.021216 L250.431777,399.89926 L221.809113,399.89926 L221.809113,424.504708 L250.431777,424.504708 L250.431777,525.43726 L278.050137,525.43726 Z M393.796173,527.94802 C411.622569,527.94802 424.427445,525.186184 436.981245,519.16036 L436.981245,492.295228 C423.674217,500.078584 411.622569,503.091496 396.809085,503.091496 C376.471929,503.091496 356.385849,494.554912 355.130469,469.196236 L448.028589,469.196236 C449.283969,423.249328 424.176369,397.3885 388.774653,397.3885 C352.870785,397.3885 326.256729,421.742872 326.256729,462.66826 C326.256729,506.355484 356.888001,527.94802 393.796173,527.94802 Z M418.903773,449.361232 L355.632621,449.361232 C358.896609,428.521924 374.212245,419.98534 388.523577,419.98534 C404.843517,419.98534 416.644089,430.279456 418.903773,449.361232 Z M503.265309,525.43726 L503.265309,444.841864 C508.788981,431.785912 518.580945,425.760088 535.403037,425.760088 L547.203609,425.760088 L547.203609,398.64388 L537.411645,398.64388 C520.840629,398.64388 508.035753,406.678312 503.265309,416.470276 L503.265309,399.89926 L475.646949,399.89926 L475.646949,525.43726 L503.265309,525.43726 Z M619.513497,527.94802 C634.326981,527.94802 647.382933,522.9265 656.170593,513.636688 L656.170593,525.43726 L683.788953,525.43726 L683.788953,399.89926 L656.170593,399.89926 L656.170593,411.448756 C647.382933,402.41002 634.326981,397.3885 619.513497,397.3885 C582.103173,397.3885 556.744497,427.266544 556.744497,462.66826 C556.744497,498.069976 582.103173,527.94802 619.513497,527.94802 Z M622.526409,502.84042 C600.431721,502.84042 585.367161,484.762948 585.367161,462.66826 C585.367161,440.573572 600.431721,422.4961 622.526409,422.4961 C638.846349,422.4961 649.642617,430.02838 656.170593,439.820344 L656.170593,485.2651 C649.642617,495.30814 638.846349,502.84042 622.526409,502.84042 Z M134.334444,247.265226 L134.334444,274.287746 L119.074668,274.287746 C104.132804,274.287746 100.31786,280.645986 100.31786,295.58785 L100.31786,295.58785 L100.31786,366.164314 C100.31786,385.556946 94.2775321,395.094306 81.8789641,399.862986 C94.2775321,404.949578 100.31786,414.80485 100.31786,434.197482 L100.31786,434.197482 L100.31786,504.138122 C100.31786,519.397898 104.132804,525.438226 119.074668,525.438226 L119.074668,525.438226 L134.334444,525.438226 L134.334444,552.460746 L111.762692,552.460746 C82.5147881,552.460746 69.7983081,535.929322 69.7983081,506.99933 L69.7983081,506.99933 L69.7983081,434.197482 C69.7983081,421.481002 66.3012761,413.533202 51.9952361,413.533202 L51.9952361,413.533202 L47.8623801,413.533202 L47.8623801,386.510682 L51.9952361,386.510682 C66.3012761,386.510682 69.7983081,378.562882 69.7983081,366.164314 L69.7983081,366.164314 L69.7983081,292.726642 C69.7983081,263.79665 82.5147881,247.265226 111.762692,247.265226 L111.762692,247.265226 L134.334444,247.265226 Z M748.566561,347.1733 L748.566561,525.43726 L720.948201,525.43726 L720.948201,347.1733 L748.566561,347.1733 Z" id="Literal" fill="#FFFFFF" fill-rule="nonzero"></path>
    </g>
</svg>