<?xml version="1.0" encoding="UTF-8"?>
<!-- Generated by Pixelmator Pro 3.6.4 -->
<svg width="1826" height="677" viewBox="0 0 1826 677" xmlns="http://www.w3.org/2000/svg">
    <path id="literal" fill="#3f4349" fill-rule="evenodd" stroke="none" d="M 364.853516 667.402344 L 364.853516 357.419922 L 414.933594 357.419922 L 414.933594 667.402344 L 364.853516 667.402344 Z M 180.447266 666.929688 C 163.708481 666.929688 149.710464 661.09375 138.455078 649.421875 C 127.199715 637.750122 121.572266 623.451294 121.572266 606.527344 L 121.572266 319.402344 C 121.572266 284.970551 102.81292 267.755859 65.294922 267.755859 L 0.361328 267.755859 L 0.361328 216.982422 L 65.294922 216.982422 C 102.81292 216.982422 121.572266 199.767731 121.572266 165.335938 L 121.572266 -121.789063 C 121.572266 -138.713013 127.199715 -153.011963 138.455078 -164.683594 C 149.710464 -176.355591 163.708481 -182.189453 180.447266 -182.189453 L 288.363281 -182.189453 L 288.363281 -139.414063 L 195.166016 -139.414063 C 179.581619 -139.414063 171.789063 -130.660034 171.789063 -113.152344 L 171.789063 167.085938 C 171.789063 188.678741 166.449692 205.749634 155.771484 218.296875 C 145.093338 230.844055 129.365128 237.117188 108.585938 237.117188 L 105.988281 237.117188 L 105.988281 247.621094 L 108.585938 247.621094 C 129.365128 247.621094 145.093338 253.894226 155.771484 266.441406 C 166.449692 278.988464 171.789063 296.059723 171.789063 317.652344 L 171.789063 597.892578 C 171.789063 615.400269 179.581619 624.152344 195.166016 624.152344 L 288.363281 624.152344 L 288.363281 666.929688 L 180.447266 666.929688 Z M 389.798828 291.445313 C 371.611847 291.445313 356.867188 276.702545 356.867188 258.515625 C 356.867188 240.328644 371.611847 225.583984 389.798828 225.583984 C 407.985748 225.583984 422.728516 240.328644 422.728516 258.515625 C 422.728516 276.702545 407.985748 291.445313 389.798828 291.445313 Z M 1501.39502 676.874756 C 1479.597534 676.874756 1459.898682 673.115967 1442.297729 665.598145 C 1424.696655 658.080322 1410.795288 647.044678 1400.593262 632.491211 C 1390.391235 617.9375 1385.290283 600.33667 1385.290283 579.688232 C 1385.290283 558.729492 1390.391235 541.33667 1400.593262 527.509521 C 1410.795288 513.682373 1424.713135 503.29541 1442.347168 496.348877 C 1459.981201 489.402344 1479.729614 485.928955 1501.59314 485.928955 L 1606.713379 485.928955 L 1606.713379 463.227051 C 1606.713379 441.231445 1600.263672 423.904785 1587.364258 411.246338 C 1574.464844 398.587891 1555.32373 392.258789 1529.940918 392.258789 C 1504.973877 392.258789 1485.454834 398.302246 1471.383301 410.389648 C 1457.311768 422.476807 1447.898926 438.553955 1443.144531 458.621338 L 1395.710205 443.803711 C 1400.781494 426.245605 1408.842285 410.359863 1419.892944 396.146484 C 1430.943481 381.932861 1445.647095 370.555664 1464.00415 362.01416 C 1482.361206 353.4729 1504.462036 349.202393 1530.307373 349.202393 C 1569.92041 349.202393 1600.795166 359.407471 1622.932617 379.818359 C 1645.070068 400.229004 1656.138672 429.031982 1656.138672 466.228271 L 1656.138672 606.461182 C 1656.138672 619.139404 1662.054932 625.478516 1673.888184 625.478516 L 1702.394287 625.478516 L 1702.394287 668 L 1658.14917 668 C 1644.31543 668 1633.227051 664.122314 1624.883789 656.366699 C 1616.540527 648.611328 1612.369141 638.093994 1612.369141 624.814941 L 1612.369141 621.476807 L 1604.375732 621.476807 C 1599.984619 629.546143 1593.856934 637.927246 1585.992432 646.620361 C 1578.12793 655.313477 1567.406006 662.529297 1553.826416 668.267334 C 1540.246826 674.005615 1522.769775 676.874756 1501.39502 676.874756 Z M 1507.238892 633.818359 C 1536.834717 633.818359 1560.8125 625.034424 1579.172852 607.466553 C 1597.533203 589.898438 1606.713379 565.359375 1606.713379 533.848633 L 1606.713379 526.608154 L 1503.702881 526.608154 C 1483.807129 526.608154 1467.457764 530.903564 1454.653931 539.494385 C 1441.85022 548.085205 1435.448486 561.086914 1435.448486 578.499756 C 1435.448486 595.912598 1442.061523 609.485352 1455.287842 619.218506 C 1468.514282 628.951904 1485.831055 633.818359 1507.238892 633.818359 Z M 1177.902466 668 L 1177.902466 358.077148 L 1226.802734 358.077148 L 1226.802734 395.834473 L 1235.509155 395.834473 C 1241.055908 382.251465 1249.517822 372.351563 1260.895264 366.134766 C 1272.272705 359.917725 1287.397217 356.809326 1306.269409 356.809326 L 1342.957031 356.809326 L 1342.957031 402.609375 L 1302.753174 402.609375 C 1280.368164 402.609375 1262.324951 408.822998 1248.623169 421.250244 C 1234.921387 433.67749 1228.070557 453.038086 1228.070557 479.332275 L 1228.070557 668 Z M 945.046631 676.874756 C 913.476318 676.874756 885.903198 670.21875 862.326172 656.906494 C 838.749268 643.594482 820.37915 624.862793 807.215576 600.711426 C 794.051941 576.559814 787.470276 548.60376 787.470276 516.842041 L 787.470276 509.235107 C 787.470276 477.17627 794.020569 449.145752 807.12146 425.142822 C 820.222412 401.139893 838.381104 382.482666 861.598145 369.17041 C 884.815308 355.858398 911.459106 349.202393 941.530396 349.202393 C 970.881958 349.202393 996.741577 355.470459 1019.110107 368.006592 C 1041.47876 380.542969 1059.001831 398.360107 1071.680176 421.458252 C 1084.358398 444.556396 1090.69751 471.864014 1090.69751 503.381348 L 1090.69751 525.697021 L 838.004883 525.697021 C 839.147217 559.248047 849.801392 585.411621 869.967773 604.187988 C 890.134155 622.964355 915.404541 632.352539 945.779541 632.352539 C 972.681274 632.352539 993.289795 626.29248 1007.605713 614.172119 C 1021.921509 602.051758 1032.876221 587.523193 1040.469971 570.585693 L 1083.704712 591.31665 C 1077.490967 604.404297 1068.784668 617.542969 1057.585571 630.73291 C 1046.386353 643.923096 1031.790161 654.910645 1013.796143 663.696289 C 995.802246 672.481934 972.885986 676.874756 945.046631 676.874756 Z M 838.638794 485.007813 L 1039.717163 485.007813 C 1038.026733 456.032715 1028.26062 433.576904 1010.418579 417.639893 C 992.57666 401.702881 969.551392 393.734619 941.342163 393.734619 C 913.192383 393.734619 890.078003 401.702881 871.998291 417.639893 C 853.918579 433.576904 842.798828 456.032715 838.638794 485.007813 Z M 636.474243 668 C 618.764221 668 605.115479 663.130127 595.527527 653.390381 C 585.939575 643.650635 581.145691 630.256104 581.145691 613.206299 L 581.145691 401.5 L 488.139099 401.5 L 488.139099 358.077148 L 581.145691 358.077148 L 581.145691 247.855957 L 631.313782 247.855957 L 631.313782 358.077148 L 732.828674 358.077148 L 732.828674 401.5 L 631.313782 401.5 L 631.313782 605.559814 C 631.313782 618.238037 637.530701 624.577148 649.964661 624.577148 L 718.922241 624.577148 L 718.922241 668 Z M 1775.92627 668 L 1775.92627 224.423096 L 1826.076172 224.423096 L 1826.076172 668 Z"/>
</svg>
